<svg width="21" height="20" viewBox="0 0 21 20" fill="none" xmlns="http://www.w3.org/2000/svg">
<g clip-path="url(#clip0_30_732)">
<mask id="mask0_30_732" style="mask-type:luminance" maskUnits="userSpaceOnUse" x="0" y="0" width="21" height="20">
<path d="M0.861328 0.720215H20.1707V19.3104H0.861328V0.720215Z" fill="white"/>
</mask>
<g mask="url(#mask0_30_732)">
<path d="M6.22508 0.720215C3.26321 0.720215 0.861328 3.03258 0.861328 5.88407V14.1465C0.861328 16.998 3.26321 19.3104 6.22508 19.3104H14.8069C17.7688 19.3104 20.1707 16.998 20.1707 14.1465V5.88407C20.1707 3.03258 17.7688 0.720215 14.8069 0.720215H6.22508ZM16.9526 2.78595C17.5446 2.78595 18.0254 3.24832 18.0254 3.81834C18.0254 4.38883 17.5446 4.85121 16.9526 4.85121C16.3605 4.85121 15.8798 4.38883 15.8798 3.81834C15.8798 3.24832 16.3605 2.78595 16.9526 2.78595ZM10.516 4.85121C13.4779 4.85121 15.8798 7.16358 15.8798 10.0151C15.8798 12.8665 13.4779 15.1794 10.516 15.1794C7.5541 15.1794 5.15223 12.8665 5.15223 10.0151C5.15223 7.16358 7.5541 4.85121 10.516 4.85121ZM10.516 6.91694C10.4105 6.91694 10.3055 6.92209 10.2005 6.93192C10.0955 6.94174 9.99145 6.95672 9.88794 6.97638C9.78486 6.99603 9.68275 7.02084 9.58169 7.05032C9.48106 7.0798 9.38192 7.11397 9.28463 7.15281C9.18698 7.19165 9.09169 7.23471 8.99885 7.28292C8.90601 7.33065 8.81554 7.38259 8.72806 7.43922C8.64056 7.49538 8.55598 7.55575 8.47431 7.62033C8.39265 7.68445 8.31487 7.75278 8.2405 7.82438C8.16563 7.89598 8.09515 7.97133 8.02806 8.04949C7.96147 8.12812 7.89876 8.20954 7.83994 8.29379C7.7816 8.37849 7.72765 8.46506 7.67757 8.55492C7.628 8.64431 7.58327 8.73602 7.54293 8.82967C7.50258 8.92324 7.46709 9.01871 7.43647 9.11602C7.40584 9.21289 7.38008 9.31124 7.35966 9.41089C7.33876 9.51011 7.32369 9.61071 7.313 9.71132C7.30278 9.81245 7.29793 9.91402 7.29793 10.0151C7.29793 10.1166 7.30278 10.2182 7.313 10.3188C7.32369 10.4198 7.33876 10.52 7.35966 10.6198C7.38008 10.7194 7.40584 10.8177 7.43647 10.9145C7.46709 11.0119 7.50258 11.1074 7.54293 11.201C7.58327 11.2945 7.628 11.3863 7.67757 11.4757C7.72765 11.5651 7.7816 11.6521 7.83994 11.7368C7.89876 11.8211 7.96147 11.9025 8.02806 11.9806C8.09515 12.0592 8.16563 12.1341 8.2405 12.2062C8.31487 12.2778 8.39265 12.3462 8.47431 12.4103C8.55598 12.4749 8.64056 12.5352 8.72806 12.5914C8.81554 12.648 8.90601 12.6999 8.99885 12.7477C9.09169 12.7954 9.18698 12.839 9.28419 12.8778C9.38193 12.9166 9.48106 12.9508 9.58169 12.9803C9.68275 13.0098 9.78486 13.0341 9.88794 13.0542C9.99145 13.0738 10.0955 13.0889 10.2005 13.0987C10.3055 13.1085 10.4105 13.1137 10.516 13.1137C10.6215 13.1137 10.7264 13.1085 10.8315 13.0987C10.9365 13.0889 11.0405 13.0738 11.144 13.0542C11.2471 13.0341 11.3492 13.0098 11.4503 12.9803C11.5509 12.9508 11.6501 12.9166 11.7477 12.8778C11.845 12.839 11.9403 12.7954 12.0332 12.7477C12.126 12.6999 12.2164 12.648 12.3039 12.5914C12.3914 12.5352 12.476 12.4749 12.5576 12.4103C12.6393 12.3462 12.7171 12.2778 12.7915 12.2062C12.8664 12.1341 12.9368 12.0592 13.0039 11.9806C13.0705 11.9025 13.1332 11.8211 13.192 11.7368C13.2504 11.6521 13.3048 11.5651 13.3544 11.4757C13.404 11.3863 13.4492 11.2945 13.4895 11.201C13.5299 11.1074 13.5649 11.0119 13.5955 10.9145C13.6261 10.8177 13.6519 10.7194 13.6723 10.6198C13.6932 10.52 13.7083 10.4198 13.7189 10.3188C13.7292 10.2182 13.7345 10.1166 13.7345 10.0151C13.7345 9.91402 13.7292 9.81245 13.7189 9.71132C13.7083 9.61071 13.6932 9.51011 13.6723 9.41089C13.6519 9.31124 13.6261 9.21289 13.5955 9.11602C13.5649 9.01871 13.5299 8.92324 13.4895 8.82967C13.4492 8.73602 13.404 8.64431 13.3544 8.55492C13.3048 8.46506 13.2504 8.37849 13.192 8.29379C13.1332 8.20954 13.0705 8.12812 13.0039 8.04949C12.9368 7.97133 12.8664 7.89598 12.7915 7.82438C12.7171 7.75278 12.6393 7.68445 12.5576 7.62033C12.476 7.55575 12.3914 7.49538 12.3039 7.43922C12.2164 7.38259 12.126 7.33065 12.0332 7.28292C11.9403 7.23471 11.845 7.19165 11.7477 7.15281C11.6501 7.11397 11.5509 7.0798 11.4503 7.05032C11.3492 7.02084 11.2471 6.99603 11.144 6.97638C11.0405 6.95672 10.9365 6.94174 10.8315 6.93192C10.7264 6.92209 10.6215 6.91694 10.516 6.91694Z" fill="white"/>
</g>
</g>
<defs>
<clipPath id="clip0_30_732">
<rect width="21" height="20" fill="white"/>
</clipPath>
</defs>
</svg>
