<svg width="22" height="12" viewBox="0 0 22 12" fill="none" xmlns="http://www.w3.org/2000/svg">
<path fill-rule="evenodd" clip-rule="evenodd" d="M12.7364 4.80125H14.4736C16.7116 4.80125 18.5255 2.91986 18.5255 0.60183C18.5255 0.53129 18.5255 0.466106 18.5255 0.407173C18.5255 0.18305 18.7021 0 18.9184 0C19.5871 0 20.9375 0 21.6071 0C21.7113 0 21.8113 0.0428602 21.8845 0.119652C21.9587 0.19555 22 0.29913 22 0.407173C22 0.466106 22 0.53129 22 0.60183C22 2.66895 21.2064 4.65302 19.7957 6.11563C19.744 6.16832 19.6931 6.221 19.6397 6.2719C21.0788 7.48181 22 9.33016 22 11.3982C22 11.4687 22 11.5339 22 11.5928C22 11.7009 21.9587 11.8045 21.8845 11.8803C21.8113 11.9571 21.7113 12 21.6071 12C20.9375 12 19.5871 12 18.9184 12C18.815 12 18.7142 11.9571 18.6419 11.8803C18.5669 11.8045 18.5255 11.7009 18.5255 11.5928C18.5255 11.5321 18.5255 11.4687 18.5255 11.3982C18.5255 9.7436 17.2303 8.39976 15.6309 8.39976H12.7364V11.3982C12.7364 11.558 12.6752 11.7098 12.5666 11.8232C12.4589 11.9357 12.3116 12 12.1564 12H11C4.92393 12 0 6.89694 0 0.60183C0 0.221445 0 0 0 0H3.47364C3.47364 0 3.47364 0.224124 3.47364 0.60183C3.47364 2.66895 4.26557 4.65302 5.67795 6.11563C6.67239 7.14606 7.9167 7.85862 9.26278 8.18992V0.60183C9.26278 0.441997 9.32391 0.289307 9.4325 0.176799C9.54022 0.0642904 9.68762 0 9.84272 0C10.4838 0 11.5153 0 12.1564 0C12.3116 0 12.4589 0.0642904 12.5666 0.176799C12.6752 0.289307 12.7364 0.441997 12.7364 0.60183V4.80125Z" fill="white"/>
</svg>
