<svg width="21" height="21" viewBox="0 0 21 21" fill="none" xmlns="http://www.w3.org/2000/svg">
<g clip-path="url(#clip0_9_66)">
<mask id="mask0_9_66" style="mask-type:luminance" maskUnits="userSpaceOnUse" x="0" y="0" width="21" height="21">
<path d="M0 0H21V21H0V0Z" fill="white"/>
</mask>
<g mask="url(#mask0_9_66)">
<path d="M10.4923 0.0188572C4.66076 0.0379978 -0.000437386 4.76756 0.0761251 10.5836C0.0825054 11.1688 0.139016 11.7493 0.244745 12.3253C0.349562 12.9014 0.502687 13.4647 0.70412 14.0143C0.904645 14.5648 1.15074 15.0944 1.44149 15.603C1.73225 16.1116 2.06402 16.5919 2.43589 17.0449C2.49513 17.1169 2.54162 17.1953 2.57625 17.281C2.6118 17.3666 2.63277 17.456 2.64097 17.548C2.64918 17.6401 2.64371 17.7321 2.62365 17.8223C2.60451 17.9127 2.5717 17.9983 2.52703 18.0794L1.62652 19.6891C1.37678 20.1347 1.78329 20.6625 2.28003 20.5367L5.32977 19.762C5.54943 19.7064 5.7609 19.7283 5.96506 19.8267C7.32951 20.4884 8.77056 20.8347 10.2872 20.8675C16.1506 20.9997 20.9622 16.3267 20.9814 10.4779C20.9987 4.69282 16.2928 -0.000283355 10.4923 0.0188572ZM10.5278 19.5861C10.228 19.5861 9.9281 19.5705 9.63008 19.5414C9.33109 19.5122 9.03481 19.4685 8.74045 19.4101C8.44605 19.3518 8.15438 19.2789 7.86727 19.1923C7.58016 19.1048 7.29761 19.0046 7.02053 18.8897C6.74344 18.7757 6.47274 18.6472 6.2075 18.506C5.94318 18.3656 5.68615 18.2115 5.43641 18.0448C5.18668 17.8789 4.94605 17.7012 4.71362 17.5107C4.48212 17.3211 4.25972 17.1196 4.04735 16.9081C3.83498 16.6968 3.63355 16.4752 3.44306 16.2438C3.25256 16.0122 3.07482 15.7725 2.90803 15.5228C2.74123 15.2739 2.58628 15.0178 2.445 14.7535C2.30373 14.4901 2.17522 14.2194 2.06037 13.9423C1.94553 13.6661 1.84527 13.3845 1.75777 13.0983C1.67027 12.8111 1.59735 12.5213 1.53902 12.2279C1.48068 11.9344 1.43693 11.6381 1.40685 11.341C1.37769 11.0429 1.3631 10.7439 1.3631 10.4441C1.3631 5.39647 5.46649 1.3031 10.5278 1.3031C15.57 1.3031 19.6606 5.36456 19.6926 10.3858C19.7244 15.4243 15.5801 19.5861 10.5278 19.5861Z" fill="white"/>
</g>
<path fill-rule="evenodd" clip-rule="evenodd" d="M18.628 11.3003C18.6542 11.0351 18.6674 10.7669 18.6674 10.5001C18.6674 10.232 18.6542 9.96525 18.628 9.69995C18.6017 9.43325 18.5624 9.16944 18.5099 8.90703C18.4574 8.6447 18.3933 8.38526 18.3146 8.13019C18.2374 7.87365 18.147 7.6215 18.045 7.37518C17.9429 7.12738 17.8292 6.88689 17.7024 6.65077C17.5771 6.41464 17.4386 6.18581 17.2899 5.9628C17.1413 5.74125 16.9824 5.52699 16.8133 5.32002C16.6428 5.11305 16.4635 4.91482 16.2755 4.72534C16.086 4.53731 15.8877 4.35658 15.6808 4.18751C15.4738 4.01843 15.2596 3.85956 15.038 3.71089C14.815 3.56221 14.5862 3.42375 14.35 3.29839C14.1139 3.17159 13.8734 3.0579 13.6256 2.95587C13.3779 2.85384 13.1272 2.76348 12.8707 2.68623C12.6156 2.60752 12.3562 2.54338 12.0937 2.49092C11.8314 2.43844 11.5676 2.39909 11.3008 2.37285C11.0356 2.34661 10.7674 2.3335 10.5006 2.3335C10.2324 2.3335 9.96574 2.34661 9.70044 2.37285C9.43374 2.39909 9.16993 2.43844 8.90752 2.49092C8.64518 2.54338 8.38575 2.60752 8.13068 2.68623C7.87414 2.76348 7.62199 2.85384 7.37566 2.95587C7.12787 3.0579 6.88738 3.17159 6.65126 3.29839C6.41513 3.42375 6.18629 3.56221 5.96329 3.71089C5.74174 3.85956 5.52748 4.01843 5.32051 4.18751C5.11354 4.35658 4.91531 4.53731 4.72583 4.72534C4.5378 4.91482 4.35707 5.11305 4.188 5.32002C4.01892 5.52699 3.86005 5.74125 3.71137 5.9628C3.5627 6.18581 3.42423 6.41464 3.29888 6.65077C3.17208 6.88689 3.05839 7.12738 2.95636 7.37518C2.85433 7.6215 2.76397 7.87365 2.68671 8.13019C2.60801 8.38526 2.54387 8.6447 2.49141 8.90703C2.43893 9.16944 2.39957 9.43325 2.37334 9.69995C2.3471 9.96525 2.33398 10.232 2.33398 10.5001C2.33398 10.7669 2.3471 11.0351 2.37334 11.3003C2.39957 11.5671 2.43893 11.8309 2.49141 12.0933C2.54387 12.3557 2.60801 12.6151 2.68671 12.8702C2.76397 13.1267 2.85433 13.3774 2.95636 13.6251C3.05839 13.8729 3.17208 14.1135 3.29888 14.3495C3.42423 14.5857 3.5627 14.8145 3.71137 15.0375C3.86005 15.2591 4.01892 15.4733 4.188 15.6803C4.35707 15.8873 4.5378 16.0855 4.72583 16.275C4.91531 16.463 5.11354 16.6423 5.32051 16.8128C5.52748 16.9819 5.74174 17.1408 5.96329 17.2894C6.18629 17.4381 6.41513 17.5766 6.65126 17.7019C6.88738 17.8287 7.12787 17.9425 7.37566 18.0445C7.62199 18.1465 7.87414 18.2369 8.13068 18.3141C8.38575 18.3928 8.64518 18.457 8.90752 18.5095C9.16993 18.5619 9.43374 18.6012 9.70044 18.6275C9.96574 18.6537 10.2324 18.6669 10.5006 18.6669C10.7674 18.6669 11.0356 18.6537 11.3008 18.6275C11.5676 18.6012 11.8314 18.5619 12.0937 18.5095C12.3562 18.457 12.6156 18.3928 12.8707 18.3141C13.1272 18.2369 13.3779 18.1465 13.6256 18.0445C13.8734 17.9425 14.1139 17.8287 14.35 17.7019C14.5862 17.5766 14.815 17.4381 15.038 17.2894C15.2596 17.1408 15.4738 16.9819 15.6808 16.8128C15.8877 16.6423 16.086 16.463 16.2755 16.275C16.4635 16.0855 16.6428 15.8873 16.8133 15.6803C16.9824 15.4733 17.1413 15.2591 17.2899 15.0375C17.4386 14.8145 17.5771 14.5857 17.7024 14.3495C17.8292 14.1135 17.9429 13.8729 18.045 13.6251C18.147 13.3774 18.2374 13.1267 18.3146 12.8702C18.3933 12.6151 18.4574 12.3557 18.5099 12.0933C18.5624 11.8309 18.6017 11.5671 18.628 11.3003ZM8.45729 6.11037L8.45273 6.10216C8.41627 6.03107 8.37344 5.96454 8.32331 5.90256C8.27409 5.84057 8.2194 5.78316 8.15833 5.73212C8.09726 5.68016 8.03163 5.6355 7.96237 5.59722C7.8931 5.55803 7.82018 5.52704 7.74362 5.50243C7.66797 5.47782 7.59049 5.46141 7.51119 5.45229C7.4319 5.44318 7.3526 5.44227 7.27331 5.44865C7.19401 5.45503 7.11562 5.46962 7.03906 5.49149C6.9625 5.51337 6.88867 5.54253 6.81757 5.57899L6.1039 5.94448C5.99818 5.99826 5.90247 6.06662 5.81679 6.14865C5.73112 6.23159 5.65912 6.32456 5.60078 6.42756C5.54244 6.53056 5.50052 6.64084 5.475 6.75568C5.44856 6.87144 5.43945 6.98901 5.44856 7.1075C5.86966 13.0676 11.1078 15.039 13.3054 15.6059C13.4384 15.6406 13.5742 15.6524 13.7109 15.6406C13.8486 15.6297 13.9798 15.5959 14.1056 15.5394C14.2314 15.4838 14.3444 15.4082 14.4447 15.3143C14.5449 15.2195 14.627 15.111 14.6899 14.9898L15.0781 14.2396C15.0991 14.1996 15.1173 14.1576 15.1338 14.1148C15.162 14.041 15.1829 13.9644 15.1957 13.886C15.2094 13.8076 15.2149 13.7284 15.2121 13.649C15.2103 13.5697 15.2003 13.4913 15.1821 13.4139C15.1647 13.3365 15.1392 13.2608 15.1064 13.1888C15.0736 13.1159 15.0344 13.0474 14.9879 12.9828C14.9423 12.918 14.8895 12.8579 14.8321 12.8041C14.7737 12.7494 14.7108 12.7011 14.6433 12.6583C14.5759 12.6163 14.5048 12.5808 14.4301 12.5525L13.031 12.0221C12.856 11.9555 12.6755 11.9318 12.4886 11.9483C12.3027 11.9656 12.1295 12.023 11.9691 12.1196L11.6173 12.3338C11.5125 12.3967 11.4013 12.4432 11.2828 12.4724C11.1643 12.5024 11.044 12.5143 10.9228 12.5079C10.8007 12.5015 10.6822 12.4769 10.5673 12.4359C10.4534 12.394 10.3467 12.3356 10.2501 12.2627C9.38238 11.6083 8.81363 10.7023 8.48554 10.0451C8.42721 9.9285 8.38893 9.80539 8.37161 9.67694C8.35338 9.54744 8.35612 9.41899 8.3789 9.29045C8.4026 9.16288 8.44635 9.0416 8.50924 8.9268C8.57213 8.81288 8.65143 8.71168 8.74713 8.62326C8.84285 8.53394 8.92301 8.43094 8.98592 8.3161C9.04883 8.20125 9.0917 8.07912 9.11445 7.94969C9.13817 7.82118 9.14 7.69175 9.12084 7.56141C9.10168 7.43198 9.06248 7.30894 9.00324 7.19136L8.45729 6.11037Z" fill="white"/>
</g>
<defs>
<clipPath id="clip0_9_66">
<rect width="21" height="21" fill="white"/>
</clipPath>
</defs>
</svg>
