<?xml version="1.0" encoding="utf-8"?><svg viewBox="0 0 502.66 502.66" xmlns="http://www.w3.org/2000/svg" xmlns:xlink="http://www.w3.org/1999/xlink"><style>:root>svg{display:none}:root>svg:target{display:block}</style><svg viewBox="0 0 502.664 502.664" xml:space="preserve" id="icon" xmlns="http://www.w3.org/2000/svg"><path d="M153.821 358.226 0 274.337v-46.463l153.821-83.414v54.574L46.636 250.523l107.185 53.431v54.272zm26.273 29.358L282.103 115.08h32.227L212.084 387.584h-31.99zm168.749-29.358v-54.272l107.164-52.999-107.164-52.59v-53.927l153.821 83.522v46.183l-153.821 84.083z"/></svg><svg viewBox="0 0 32 32" id="tg" xmlns="http://www.w3.org/2000/svg"><path d="M23.985 9.381c.142-.92-.733-1.647-1.552-1.287L6.131 15.25c-.587.258-.544 1.147.065 1.34l3.362 1.072a2.167 2.167 0 0 0 1.897-.289l7.58-5.236c.228-.159.477.167.282.368L13.86 18.13c-.53.546-.425 1.47.212 1.87l6.109 3.83c.685.43 1.566-.002 1.694-.83l2.109-13.62Z"/></svg><svg viewBox="0 0 21 21" id="whatsapp" xmlns="http://www.w3.org/2000/svg"><g clip-path="url(#ca)"><mask id="cb" maskUnits="userSpaceOnUse" x="0" y="0" width="21" height="21"><path d="M0 0h21v21H0V0Z"/></mask><g mask="url(#cb)"><path d="M10.492.019C4.661.038 0 4.768.076 10.584c.007.585.063 1.165.169 1.741.105.576.258 1.14.46 1.69a10.298 10.298 0 0 0 1.73 3.03.898.898 0 0 1 .206.503.93.93 0 0 1-.114.531l-.9 1.61a.582.582 0 0 0 .653.848l3.05-.775a.907.907 0 0 1 .635.065 10.303 10.303 0 0 0 4.322 1.04c5.864.133 10.675-4.54 10.694-10.39C21 4.694 16.293 0 10.492.02Zm.036 19.567a9.243 9.243 0 0 1-3.507-.696 9.09 9.09 0 0 1-1.585-.845 8.96 8.96 0 0 1-1.389-1.137 9.054 9.054 0 0 1-1.602-2.155 9.039 9.039 0 0 1-.687-1.655 9.015 9.015 0 0 1-.351-1.757 9.208 9.208 0 0 1-.044-.897c0-5.048 4.103-9.14 9.165-9.14 5.042 0 9.133 4.06 9.165 9.082.031 5.038-4.113 9.2-9.165 9.2Z"/></g><path fill-rule="evenodd" clip-rule="evenodd" d="M18.628 11.3a8.157 8.157 0 0 0-1.815-5.98 8.677 8.677 0 0 0-.537-.595 8.333 8.333 0 0 0-1.238-1.014 8.012 8.012 0 0 0-1.412-.755 8.15 8.15 0 0 0-2.325-.583 8.144 8.144 0 0 0-4.65.925 8.023 8.023 0 0 0-1.33.89c-.207.169-.406.35-.595.537A8.313 8.313 0 0 0 3.71 5.963a8.024 8.024 0 0 0-.755 1.412 8.01 8.01 0 0 0-.27.755 8.06 8.06 0 0 0-.313 3.17 8.056 8.056 0 0 0 .314 1.57 8.153 8.153 0 0 0 5.444 5.444 8.105 8.105 0 0 0 3.963.195 8.144 8.144 0 0 0 5.196-3.472 7.992 7.992 0 0 0 .755-1.412 8.144 8.144 0 0 0 .465-1.532c.052-.262.092-.526.118-.793ZM8.458 6.11l-.005-.008a1.166 1.166 0 0 0-.49-.505 1.167 1.167 0 0 0-.452-.145 1.221 1.221 0 0 0-.693.127l-.714.365a1.201 1.201 0 0 0-.629.812 1.17 1.17 0 0 0-.026.351c.42 5.96 5.659 7.932 7.856 8.499.133.035.27.046.406.035a1.209 1.209 0 0 0 .979-.65l.388-.751a1.187 1.187 0 0 0 .134-.591 1.155 1.155 0 0 0-.224-.666 1.165 1.165 0 0 0-.345-.325 1.22 1.22 0 0 0-.213-.105l-1.399-.53a1.206 1.206 0 0 0-1.062.097l-.352.214a1.208 1.208 0 0 1-.694.174 1.233 1.233 0 0 1-.673-.245c-.868-.655-1.436-1.56-1.764-2.218a1.222 1.222 0 0 1-.107-.755 1.215 1.215 0 0 1 .368-.667 1.222 1.222 0 0 0 .367-.673 1.18 1.18 0 0 0-.11-.759l-.547-1.08Z"/></g><defs><clipPath id="ca"><path d="M0 0h21v21H0z"/></clipPath></defs></svg></svg>